<?xml version="1.0" encoding="UTF-8" standalone="no"?>
<svg
   xmlns:dc="http://purl.org/dc/elements/1.1/"
   xmlns:cc="http://creativecommons.org/ns#"
   xmlns:rdf="http://www.w3.org/1999/02/22-rdf-syntax-ns#"
   xmlns:svg="http://www.w3.org/2000/svg"
   xmlns="http://www.w3.org/2000/svg"
   xmlns:sodipodi="http://sodipodi.sourceforge.net/DTD/sodipodi-0.dtd"
   xmlns:inkscape="http://www.inkscape.org/namespaces/inkscape"
   viewBox="0 0 700 700"
   version="1.1"
   focusable="false"
   id="svg18"
   sodipodi:docname="macys-logo.svg"
   width="700"
   height="700"
   inkscape:version="0.92.3 (2405546, 2018-03-11)"
   inkscape:export-filename="C:\Users\alex\sites\macys-logo-0.png"
   inkscape:export-xdpi="561.73712"
   inkscape:export-ydpi="561.73712">
  <metadata
     id="metadata24">
    <rdf:RDF>
      <cc:Work
         rdf:about="">
        <dc:format>image/svg+xml</dc:format>
        <dc:type
           rdf:resource="http://purl.org/dc/dcmitype/StillImage" />
        <dc:title>macys-logo</dc:title>
      </cc:Work>
    </rdf:RDF>
  </metadata>
  <defs
     id="defs22" />
  <sodipodi:namedview
     pagecolor="#ffffff"
     bordercolor="#666666"
     borderopacity="1"
     objecttolerance="10"
     gridtolerance="10"
     guidetolerance="10"
     inkscape:pageopacity="0"
     inkscape:pageshadow="2"
     inkscape:window-width="1600"
     inkscape:window-height="838"
     id="namedview20"
     showgrid="false"
     inkscape:zoom="0.41895055"
     inkscape:cx="-26.188064"
     inkscape:cy="100.61219"
     inkscape:window-x="-8"
     inkscape:window-y="-8"
     inkscape:window-maximized="1"
     inkscape:current-layer="svg18" />
  <title
     id="title2">macys-logo</title>
  <g
     id="Winners"
     style="fill:none;fill-rule:evenodd;stroke:none;stroke-width:1"
     transform="matrix(3.6786812,0,0,3.6786812,65.73139,268.40177)"
     inkscape:export-filename="C:\Users\alex\sites\macys-logo-4.png"
     inkscape:export-xdpi="68.505707"
     inkscape:export-ydpi="68.505707">
    <g
       id="large---new-logo"
       transform="translate(-180,-53)">
      <g
         id="macys-logo"
         transform="translate(180,53.453936)">
        <path
           d="m 150.17896,24.466946 c -1.15058,-0.873378 -2.54112,-1.250343 -3.89815,-1.617997 l -0.15083,-0.03911 c -1.40677,-0.395055 -2.23838,-0.761113 -2.78188,-1.225336 -0.55149,-0.473268 -0.81831,-1.099238 -0.86327,-2.027152 -0.0192,-0.424584 0.0402,-0.832674 0.17531,-1.21097 0.13541,-0.373506 0.34079,-0.706576 0.60974,-0.989633 0.30142,-0.318704 0.67998,-0.569837 1.12212,-0.744885 0.46076,-0.180634 0.97527,-0.272149 1.54377,-0.272149 0.46396,-0.01782 0.93696,0.05959 1.36767,0.215219 0.39824,0.145252 0.74142,0.357012 1.01889,0.629428 0.2647,0.262838 0.47487,0.590055 0.62171,0.972873 0.1543,0.403302 0.23597,0.866195 0.24316,1.376707 l 0.0154,0.905035 h 2.62518 l -0.0117,-0.934831 c -0.0287,-1.66934 -0.60628,-3.097657 -1.67174,-4.129323 -1.05454,-1.022887 -2.51478,-1.5749 -4.23254,-1.598842 -1.56931,0 -3.02849,0.495082 -4.11017,1.394265 -1.2695,1.05747 -1.94096,2.5922 -1.94096,4.45388 0.0601,1.791449 0.64752,3.071587 1.84945,4.025572 1.06997,0.855287 2.54804,1.328555 3.9987,1.747553 1.51158,0.3344 2.50813,0.782395 3.1365,1.411025 0.58048,0.581543 0.8638,1.366598 0.89359,2.465836 l 0.002,0.130887 c 0,0.517429 -0.0902,1.008787 -0.26949,1.461038 -0.17532,0.446931 -0.4339,0.850233 -0.76643,1.195275 -0.34531,0.354618 -0.7566,0.630492 -1.22507,0.82097 -0.48312,0.19367 -1.01065,0.291569 -1.56719,0.291569 -1.21363,0 -2.24077,-0.377231 -2.97049,-1.089926 -0.72627,-0.708972 -1.12106,-1.715364 -1.14261,-2.912235 l -0.0152,-0.907696 -2.58156,0.01463 -0.0473,1.165479 c 0,0.781597 0.1386,1.534729 0.41288,2.241306 0.2764,0.703118 0.68343,1.345316 1.21123,1.910364 0.6273,0.668534 1.42593,1.216025 2.31074,1.584477 0.87551,0.363131 1.85184,0.555471 2.82232,0.555471 0.91116,0 1.79118,-0.174516 2.61588,-0.520887 0.82203,-0.348234 1.54643,-0.852894 2.15431,-1.498815 0.58926,-0.625704 1.03406,-1.347976 1.32111,-2.144737 0.28837,-0.795697 0.40915,-1.638215 0.35967,-2.502814 -0.10774,-2.065193 -0.82336,-3.571191 -2.18517,-4.601527"
           id="Fill-1"
           inkscape:connector-curvature="0"
           style="fill:#000000" />
        <g
           id="Group-5"
           transform="translate(135.40946,0.09178)">
          <g
             id="Clip-4" />
          <polygon
             id="Fill-3"
             mask="url(#mask-2)"
             points="1.8230795,8.66562 4.5599999,6.6645396 7.3144784,8.6728028 6.2644565,5.42404 9.0295762,3.4160427 5.6134802,3.4160427 4.5671828,0.17419668 3.5099781,3.4160427 0.087763418,3.4160427 2.8600659,5.4264342 "
             style="fill:#000000" />
        </g>
        <g
           id="Group-8"
           transform="translate(118.91558,13.659329)">
          <g
             id="Clip-7" />
          <path
             d="M 9.734663,17.388224 2.8638967,0.11726619 H 0.0131153 L 0.75001942,1.9853314 C 0.81040831,2.138831 2.7072048,6.9412112 4.592296,11.703155 l 3.6297184,9.170865 -3.7885385,8.655564 h 2.926334 L 19.206408,2.0042196 19.966723,0.11726619 h -2.93937 z"
             id="Fill-6"
             mask="url(#mask-4)"
             inkscape:connector-curvature="0"
             style="fill:#000000" />
        </g>
        <path
           d="m 102.60746,18.733646 c 0.9774,-0.875506 1.86727,-1.455985 2.8021,-1.828427 0.92765,-0.370048 1.94575,-0.550683 3.29319,-0.567177 1.49828,0 3.03806,0.437354 4.33576,1.232253 1.50999,0.926584 2.62891,2.302759 3.23254,3.979016 l 0.21734,0.60921 h 2.82658 l -0.43044,-1.224272 c -0.83773,-2.383898 -2.39986,-4.307298 -4.5172,-5.564823 -1.72627,-1.026612 -3.788,-1.59299 -5.80451,-1.59299 -3.01918,0 -5.79893,1.12185 -7.82715,3.159642 -2.030875,2.035399 -3.149799,4.826323 -3.149799,7.856143 0,2.788265 1.035923,5.522259 2.841469,7.49913 2.05668,2.253011 4.93353,3.444296 8.31558,3.444296 2.26338,0 4.41078,-0.654435 6.21021,-1.892008 1.79863,-1.24183 3.14475,-2.997365 3.89229,-5.07586 l 0.44481,-1.232519 h -2.84919 l -0.21016,0.622511 c -0.43071,1.253802 -1.37033,2.48366 -2.58023,3.374862 -1.43311,1.056406 -3.19343,1.623583 -5.08783,1.639279 -1.10962,0 -2.18544,-0.202449 -3.19476,-0.600697 -1.0024,-0.399843 -1.90052,-0.980322 -2.67042,-1.726271 -0.79463,-0.768562 -1.41395,-1.686898 -1.84119,-2.726545 -0.42565,-1.042041 -0.64167,-2.174532 -0.64167,-3.363156 0,-1.156168 0.23012,-2.338673 0.66668,-3.420086 0.42697,-1.063324 1.02501,-1.963837 1.726,-2.601511"
           id="Fill-9"
           inkscape:connector-curvature="0"
           style="fill:#000000" />
        <path
           d="m 92.359306,13.77625 v 3.603647 C 91.795587,16.740094 91.13397,16.15935 90.40079,15.665863 88.565447,14.42962 86.395703,13.776516 84.123006,13.776516 c -4.163908,0 -6.735623,1.908236 -8.159418,3.507344 -1.788788,2.001878 -2.814867,4.724699 -2.814867,7.471463 0,2.743305 1.025015,5.466126 2.812473,7.469601 1.424859,1.601236 3.997904,3.509472 8.161812,3.509472 2.158836,0 4.105646,-0.516365 5.785362,-1.534995 0.921795,-0.559994 1.741435,-1.260718 2.450938,-2.090999 v 3.623068 h 2.628912 V 13.77625 Z m 0.0096,12.385309 c -0.08673,0.535253 -0.220539,1.039647 -0.402238,1.510787 -0.588459,1.671469 -1.616933,3.064404 -2.971559,4.025571 -1.358351,0.964893 -3.006143,1.473809 -4.763008,1.473809 -2.567193,0 -4.739331,-0.903971 -6.281243,-2.613483 -1.365534,-1.514245 -2.159102,-3.630516 -2.175862,-5.80292 0,-2.330426 0.84704,-4.466916 2.38443,-6.015745 1.536325,-1.548829 3.653661,-2.400658 5.963603,-2.400658 1.718822,0 3.358101,0.484441 4.739065,1.400118 1.37378,0.912484 2.415289,2.203263 3.017848,3.74624 0.191276,0.454379 0.338125,0.942279 0.437886,1.449865 0.09949,0.510512 0.150573,1.054278 0.150573,1.633693 0.02022,0.524345 -0.01304,1.059599 -0.0995,1.592723 z"
           id="Fill-11"
           inkscape:connector-curvature="0"
           style="fill:#000000" />
        <path
           d="m 68.091457,15.951234 c -0.723603,-0.725731 -1.59299,-1.277478 -2.583687,-1.639545 -1.911162,-0.700192 -4.528103,-0.758719 -6.698911,0.157224 -1.086734,0.457838 -2.047369,1.132491 -2.778155,1.946278 -0.299018,0.328281 -0.561058,0.670663 -0.797293,1.040977 -0.269223,-0.47247 -0.503063,-0.813787 -0.68822,-1.009053 -0.723603,-0.866195 -1.645132,-1.537922 -2.741177,-1.996026 -1.073699,-0.447197 -2.2719,-0.674387 -3.564807,-0.674387 -0.817245,0 -2.068918,0.127428 -3.389493,0.733712 -0.865663,0.398779 -1.634491,0.943609 -2.295044,1.626509 V 13.77617 H 39.925758 V 35.73139 H 42.55467 V 23.401681 c 0,-1.20033 0.130355,-2.203264 0.399578,-3.065734 0.257251,-0.829217 0.652306,-1.540316 1.225335,-2.198209 0.415274,-0.544831 1.019163,-1.007723 1.74516,-1.337335 0.752068,-0.337859 1.54936,-0.503063 2.289457,-0.461563 1.027409,0.03352 1.927922,0.222668 2.67733,0.562655 0.727327,0.330675 1.337068,0.810328 1.807942,1.418207 0.443739,0.594578 0.711897,1.114668 0.896788,1.739041 0.229053,0.761379 0.335731,1.697806 0.335731,2.945488 l -0.0069,12.727159 H 56.55239 V 23.583645 c 0,-1.309667 0.04177,-2.354368 0.24661,-3.196355 0.180635,-0.743554 0.503329,-1.381229 1.082211,-2.133031 0.487634,-0.636345 1.168406,-1.131427 2.027418,-1.47035 1.534995,-0.608943 3.400932,-0.538977 4.658458,-0.07848 0.633418,0.230648 1.177982,0.580745 1.625179,1.0455 0.563453,0.566378 0.992826,1.31951 1.276414,2.238911 0.302477,0.980322 0.45571,2.188898 0.45571,3.593804 V 35.73139 h 2.626252 V 23.583645 c 0,-1.687962 -0.199257,-3.179861 -0.590854,-4.433662 -0.411283,-1.312062 -1.041509,-2.388686 -1.868331,-3.198749"
           id="Fill-13"
           inkscape:connector-curvature="0"
           style="fill:#000000" />
        <polygon
           id="Fill-15"
           points="11.569661,22.176371 7.1873425,35.692576 18.649261,27.329912 30.179283,35.731949 25.77382,22.154025 37.292669,13.778059 23.056586,13.778059 18.666819,0.26611018 14.28184,13.778059 0,13.778059 "
           style="fill:#e11a2b" />
      </g>
    </g>
  </g>
</svg>
