<?xml version="1.0" encoding="UTF-8" standalone="no"?>
<svg
   xmlns:dc="http://purl.org/dc/elements/1.1/"
   xmlns:cc="http://creativecommons.org/ns#"
   xmlns:rdf="http://www.w3.org/1999/02/22-rdf-syntax-ns#"
   xmlns:svg="http://www.w3.org/2000/svg"
   xmlns="http://www.w3.org/2000/svg"
   xmlns:sodipodi="http://sodipodi.sourceforge.net/DTD/sodipodi-0.dtd"
   xmlns:inkscape="http://www.inkscape.org/namespaces/inkscape"
   version="1.1"
   id="Layer_1"
   x="0px"
   y="0px"
   viewBox="0 0 700 700.00001"
   enable-background="new 0 0 95 27.9"
   xml:space="preserve"
   sodipodi:docname="pnc-bank-logo.svg"
   width="700"
   height="700"
   inkscape:version="0.92.4 (5da689c313, 2019-01-14)"
   inkscape:export-filename="C:\Users\suitedoalex\sites\pnc-bank-logo-0.png"
   inkscape:export-xdpi="561.73712"
   inkscape:export-ydpi="561.73712"><metadata
     id="metadata21"><rdf:RDF><cc:Work
         rdf:about=""><dc:format>image/svg+xml</dc:format><dc:type
           rdf:resource="http://purl.org/dc/dcmitype/StillImage" /><dc:title></dc:title></cc:Work></rdf:RDF></metadata><defs
     id="defs19"><radialGradient
       gradientTransform="translate(-191.31341,647.70853)"
       id="e"
       cx="202.81799"
       cy="160.19099"
       gradientUnits="userSpaceOnUse"
       r="80.849998"><stop
         offset=".002"
         stop-color="#209cdb"
         id="stop26" /><stop
         offset=".025"
         stop-color="#1f9bda"
         id="stop28" /><stop
         offset=".657"
         stop-color="#1379b9"
         id="stop30" /><stop
         offset="1"
         stop-color="#0e6cac"
         id="stop32" /></radialGradient><clipPath
       clipPathUnits="userSpaceOnUse"
       id="clipPath574"><path
         d="M 606.439,24 H 765.5 V 48.723 H 606.439 Z"
         id="path572"
         inkscape:connector-curvature="0" /></clipPath></defs><sodipodi:namedview
     pagecolor="#ffffff"
     bordercolor="#666666"
     borderopacity="1"
     objecttolerance="10"
     gridtolerance="10"
     guidetolerance="10"
     inkscape:pageopacity="0"
     inkscape:pageshadow="2"
     inkscape:window-width="1600"
     inkscape:window-height="837"
     id="namedview17"
     showgrid="false"
     inkscape:zoom="0.31075482"
     inkscape:cx="471.21945"
     inkscape:cy="430.15528"
     inkscape:window-x="-8"
     inkscape:window-y="-8"
     inkscape:window-maximized="1"
     inkscape:current-layer="Layer_1" /><g
     id="g4"
     transform="matrix(7.4477052,0,0,7.4477052,6.4359419,-264.32956)"
     inkscape:export-filename="C:\Users\suitedoalex\sites\pnc-bank-logo-3.png"
     inkscape:export-xdpi="195.38338"
     inkscape:export-ydpi="195.38338"><path
       d="m 13.9,0.6 c -7.3,0 -13.3,6 -13.3,13.3 0,7.3 5.9,13.3 13.3,13.3 7.3,0 13.3,-5.9 13.3,-13.3 0,-7.3 -6,-13.3 -13.3,-13.3"
       id="path2"
       inkscape:connector-curvature="0"
       style="fill:#ffffff" /></g><path
     d="m 197.09719,-75.902607 h 1.48954 c 1.48954,0 2.23431,0.74476 2.23431,2.23429 0,0.7448 -0.74477,2.23432 -2.23431,2.23432 h -1.48954 v -4.46861 m 0,6.70294 h 0.74477 c 2.97908,0 2.23431,1.48952 2.23431,3.72381 0,0.7448 0,2.23433 0.74477,2.97909 h 3.72385 c 0,-0.74476 -0.74477,-3.72385 -0.74477,-4.46861 0,-2.97905 -2.23431,-2.97905 -2.97908,-2.97905 v 0 c 2.23431,0 2.97908,-2.23433 2.97908,-3.72389 0,-2.97905 -1.48954,-4.46861 -4.46862,-4.46861 h -6.70293 v 16.38496 h 3.72385 v -7.4477 z m 1.48954,-15.6402 c -7.4477,0 -14.15064,5.95817 -14.15064,14.15064 0,7.4477 5.95817,14.15063 14.15064,14.15063 7.4477,0 14.15064,-5.95817 14.15064,-14.15063 0,-8.19247 -6.70294,-14.15064 -14.15064,-14.15064 m 0,25.32219 c -5.95816,0 -11.17156,-5.21338 -11.17156,-11.17155 0,-5.95814 5.2134,-11.17156 11.17156,-11.17156 5.95816,0 11.17156,5.21342 11.17156,11.17156 0,5.95817 -5.2134,11.17155 -11.17156,11.17155"
     id="path6"
     inkscape:connector-curvature="0"
     style="fill:#f58025;stroke-width:7.44770527"
     inkscape:export-filename="C:\Users\suitedoalex\sites\pnc-bank-logo-3.png"
     inkscape:export-xdpi="195.38338"
     inkscape:export-ydpi="195.38338" /><path
     d="m 161.34821,-145.91104 h -21.59835 c 0.74477,-2.97909 0.74477,-5.95818 -1.48954,-9.68203 l -35.00421,-61.07117 c -5.213394,-8.93726 -10.426789,-15.6402 -14.895413,-20.85357 0,0 0,0 0,0 14.150643,7.44768 41.707153,23.08789 95.330623,54.36823 l 2.97909,1.48955 c 9.68201,5.95819 15.64017,14.89541 14.15063,20.85359 -2.23431,9.68202 -16.38495,14.8954 -39.47283,14.8954 m -70.008429,59.581603 -2.979084,2.23433 c -9.682014,5.95818 -20.853573,5.95818 -25.322193,1.48956 -5.958168,-5.95817 -2.979084,-20.853573 8.192474,-40.962393 l 10.426785,-18.61925 c 2.23431,2.23429 5.213394,3.72385 8.937244,3.72385 h 70.008423 c 10.42679,0 18.61927,-0.74476 26.06698,-2.97909 0,0 0,0 0,0 -13.40588,8.93727 -40.96238,24.57743 -95.330629,55.112993 M 54.101255,-214.42992 v -3.72386 c 0,-11.17158 4.468625,-20.85357 11.171559,-22.34312 8.192474,-2.23431 20.108803,8.19246 31.280358,27.55652 l 10.426788,18.61926 c -2.97908,0.74477 -5.95816,2.97906 -7.447704,5.95814 l -35.004212,60.32643 c -5.213398,8.93722 -8.937248,16.38496 -10.426789,23.83262 0,0 0,0 0,0 0,-15.64016 0,-47.66529 0,-110.22599 m 55.857785,-49.89964 c -57.347325,0 -103.5230981,46.17578 -103.5230981,103.52312 0,57.34732 46.1757731,103.523083 103.5230981,103.523083 57.34733,0 103.5231,-46.175763 103.5231,-103.523083 0,-57.34734 -46.17577,-103.52312 -103.5231,-103.52312"
     id="path8"
     inkscape:connector-curvature="0"
     style="fill:#f58025;stroke-width:7.44770527"
     inkscape:export-filename="C:\Users\suitedoalex\sites\pnc-bank-logo-3.png"
     inkscape:export-xdpi="195.38338"
     inkscape:export-ydpi="195.38338" /><path
     d="m 320.7291,-236.02827 h -67.77412 -1.48954 v 6.70291 h 1.48954 c 23.83266,2.97909 26.81174,5.95818 26.81174,18.61926 v 128.100553 h 27.5565 v -67.029383 h 11.17156 c 26.06698,0 80.43522,0 80.43522,-43.19665 0,-43.19669 -50.64442,-43.19669 -78.2009,-43.19669 m -2.97909,75.22183 h -10.42679 v -49.89966 c 0,-11.91631 0,-13.40585 22.34311,-13.40585 25.3222,0 38.72806,11.17157 38.72806,32.02514 0,27.55648 -26.06695,31.28037 -50.64438,31.28037"
     id="path10"
     style="fill:#0068a9;fill-opacity:1;stroke-width:7.44770527"
     inkscape:connector-curvature="0"
     inkscape:export-filename="C:\Users\suitedoalex\sites\pnc-bank-logo-3.png"
     inkscape:export-xdpi="195.38338"
     inkscape:export-ydpi="195.38338" /><path
     d="M 553.84222,-236.02827 H 537.4573 v 119.90803 c -3.72385,-5.95817 -85.6486,-119.90803 -85.6486,-119.90803 h -58.09211 v 6.70291 h 1.48954 c 23.83268,2.97909 26.81177,4.46863 26.81177,20.85358 v 125.866233 h 17.87445 V -211.45087 c 4.46865,5.95817 93.09633,128.845323 93.09633,128.845323 h 23.83263 V -236.02827 Z"
     id="path12"
     style="fill:#0068a9;fill-opacity:1;stroke-width:7.44770527"
     inkscape:connector-curvature="0"
     inkscape:export-filename="C:\Users\suitedoalex\sites\pnc-bank-logo-3.png"
     inkscape:export-xdpi="195.38338"
     inkscape:export-ydpi="195.38338" /><path
     d="m 576.93013,-164.53033 c 0,41.70715 25.32222,84.159073 82.66954,84.159073 26.81171,0 40.21759,-2.97909 52.87871,-5.95818 h 1.48956 v -12.66107 l -2.23433,0.74476 c -13.40587,3.72389 -26.06699,5.21341 -36.49374,5.21341 -45.431,0 -67.77414,-25.322193 -67.77414,-76.711373 0,-34.25944 16.38496,-55.11302 43.94148,-55.11302 18.61925,0 29.04604,7.44772 32.02513,21.59835 v 1.48954 h 30.5356 v -2.97909 c -0.7448,-8.19245 -8.1925,-34.25942 -61.07121,-34.25942 -50.64438,0 -75.9666,25.3222 -75.9666,74.47702"
     id="path14"
     style="fill:#0068a9;fill-opacity:1;stroke-width:7.44770527"
     inkscape:connector-curvature="0"
     inkscape:export-filename="C:\Users\suitedoalex\sites\pnc-bank-logo-3.png"
     inkscape:export-xdpi="195.38338"
     inkscape:export-ydpi="195.38338" /><circle
     style="fill:#f1f2f2;stroke-width:3.99549675"
     cx="350.74521"
     cy="257.1015"
     r="131.68758"
     id="circle79"
     inkscape:export-filename="C:\Users\suitedoalex\sites\pnc-bank-logo-5.png"
     inkscape:export-xdpi="367.49921"
     inkscape:export-ydpi="367.49921" /><path
     inkscape:connector-curvature="0"
     style="fill:#0068a9;fill-opacity:1;stroke-width:3.99549675"
     d="m 218.36235,457.89522 h -56.44436 v 5.47385 l 1.10272,0.13251 c 19.65386,2.39734 21.63565,4.97048 21.63565,14.98703 v 104.42645 h 22.37476 v -54.27889 h 9.02182 c 21.26404,0 65.4942,0 65.4942,-35.27635 0.0359,-35.46396 -41.0897,-35.46396 -63.1768,-35.46396 m -2.74492,61.13105 h -8.55836 v -40.5383 c 0,-9.51318 0,-10.96761 18.16355,-10.96761 20.40101,0 31.65231,9.18963 31.65231,25.83882 0,22.61064 -20.85246,25.65524 -41.2575,25.65524"
     id="path81"
     inkscape:export-filename="C:\Users\suitedoalex\sites\pnc-bank-logo-5.png"
     inkscape:export-xdpi="367.49921"
     inkscape:export-ydpi="367.49921" /><path
     inkscape:connector-curvature="0"
     style="fill:#0068a9;fill-opacity:1;stroke-width:3.99549675"
     d="m 408.10849,457.91523 h -13.15316 v 97.47 c -3.47609,-4.8384 -69.95716,-97.45815 -69.95716,-97.45815 h -47.45849 v 5.45385 l 1.10277,0.15171 c 19.20629,2.50126 21.65556,3.34422 21.65556,17.15262 v 102.26886 h 14.40378 V 478.11233 c 3.49604,4.8384 75.43097,104.82172 75.43097,104.82172 h 19.24631 V 457.91507 Z"
     id="path83"
     inkscape:export-filename="C:\Users\suitedoalex\sites\pnc-bank-logo-5.png"
     inkscape:export-xdpi="367.49921"
     inkscape:export-ydpi="367.49921" /><path
     inkscape:connector-curvature="0"
     style="fill:#0068a9;fill-opacity:1;stroke-width:3.99549675"
     d="m 426.51173,516.32132 c 0,34.13763 20.83652,68.57462 67.38011,68.57462 a 147.32995,147.32995 0 0 0 43.0874,-5.13813 l 0.93491,-0.24361 v -10.25652 l -1.72202,0.46748 a 120.39231,120.39231 0 0 1 -29.7465,4.467 c -37.18207,0 -55.2697,-20.46104 -55.2697,-62.59755 0,-28.13627 13.38093,-44.95337 35.81964,-44.95337 15.04304,0 23.86111,5.90147 26.23441,17.54424 l 0.20381,1.00691 h 24.64822 l -0.18782,-1.41839 c -0.843,-6.54058 -6.87625,-27.86062 -49.51618,-27.86062 -41.02977,0 -61.86629,20.32907 -61.86629,60.40794"
     id="path85"
     inkscape:export-filename="C:\Users\suitedoalex\sites\pnc-bank-logo-5.png"
     inkscape:export-xdpi="367.49921"
     inkscape:export-ydpi="367.49921" /><path
     inkscape:connector-curvature="0"
     style="fill:#f48024;stroke-width:3.99549675"
     d="m 466.02724,394.95813 a 15.582437,15.582437 0 1 1 15.47055,-15.63027 15.610406,15.610406 0 0 1 -15.47055,15.63027 m 0,-34.73677 a 19.178384,19.178384 0 1 0 19.07448,19.1065 19.050528,19.050528 0 0 0 -19.07448,-19.1065 m -2.39734,20.9723 h 1.27456 c 3.91561,0 3.51207,2.26553 3.51207,4.87853 a 9.6371382,9.6371382 0 0 0 0.65128,4.31518 h 4.9384 a 28.368026,28.368026 0 0 1 -0.55938,-6.5247 4.0674155,4.0674155 0 0 0 -4.3471,-4.31512 v -0.0959 a 4.8545284,4.8545284 0 0 0 4.47097,-5.43791 5.286042,5.286042 0 0 0 -5.65362,-5.8694 h -9.28953 v 22.22701 h 5.03433 v -9.18968 z m 0,-9.35341 h 2.26945 c 1.5982,0 2.60908,0.83894 2.60908,2.92067 0,1.4304 -0.62333,3.29223 -2.60908,3.29223 h -2.26945 z"
     id="path87"
     inkscape:export-filename="C:\Users\suitedoalex\sites\pnc-bank-logo-5.png"
     inkscape:export-xdpi="367.49921"
     inkscape:export-ydpi="367.49921" /><path
     inkscape:connector-curvature="0"
     style="fill:#f48024;stroke-width:3.99549675"
     d="m 421.03793,277.23475 h -29.33094 a 15.486545,15.486545 0 0 0 -1.92584,-13.4208 L 341.96703,180.9833 a 146.84649,146.84649 0 0 0 -20.84848,-28.83149 c 0.1559,0.0919 0.27966,0.15188 0.3995,0.21577 19.13849,10.46821 57.38738,32.06385 130.65277,75.11531 l 4.22322,2.45324 c 13.51678,7.89109 21.59569,20.04142 19.17841,28.95535 -3.1085,11.68295 -22.9901,18.37937 -54.52653,18.37937 m -95.44444,82.58292 -4.1633,2.39734 c -13.54472,7.79517 -28.11631,8.69811 -34.64095,2.14149 -8.51443,-8.54238 -4.39506,-29.1112 11.39915,-56.38852 l 14.66745,-25.41527 a 15.478554,15.478554 0 0 0 12.58181,5.03024 h 95.6322 a 150.31058,150.31058 0 0 0 35.35618,-3.59582 c -0.12382,0.0645 -0.24774,0.1273 -0.39951,0.21974 -18.67497,11.30731 -56.51632,33.71007 -130.42901,75.62265 m -51.24626,-175.90168 0.0322,-4.79457 c 0.064,-15.63042 6.55662,-28.73964 15.47055,-31.10098 11.68284,-3.10849 27.37314,10.78784 43.15136,38.06114 l 14.66749,25.35143 a 15.582437,15.582437 0 0 0 -10.65602,8.4185 l -47.81809,82.86252 a 147.56568,147.56568 0 0 0 -14.53961,32.40365 v -0.46351 c -0.49549,-21.84354 -0.93094,-65.74199 -0.31164,-150.75014 m 76.40188,-68.91035 A 142.0479,142.0479 0 1 0 492.80526,257.08952 142.05589,142.05589 0 0 0 350.75737,115.04163"
     id="path89"
     inkscape:export-filename="C:\Users\suitedoalex\sites\pnc-bank-logo-5.png"
     inkscape:export-xdpi="367.49921"
     inkscape:export-ydpi="367.49921" /><g
     transform="matrix(4.3275324,0,0,-4.3275324,-2621.0148,1006.9973)"
     id="g568"
     inkscape:export-filename="C:\Users\suitedoalex\sites\pnc-bank-logo-4.png"
     inkscape:export-xdpi="200.83076"
     inkscape:export-ydpi="200.83076"><g
       id="g570"
       clip-path="url(#clipPath574)"><g
         id="g576"
         transform="translate(618.7662,48.7205)"><path
           d="m 0,0 c -6.807,0 -12.325,-5.518 -12.325,-12.323 0,-6.806 5.518,-12.324 12.325,-12.324 6.806,0 12.323,5.518 12.323,12.324 C 12.323,-5.518 6.806,0 0,0"
           style="fill:#ffffff;fill-opacity:1;fill-rule:nonzero;stroke:none"
           id="path578"
           inkscape:connector-curvature="0" /></g><g
         id="g580"
         transform="translate(629.3178,24.313)"><path
           d="m 0,0 c -0.752,0 -1.355,0.612 -1.355,1.359 0,0.747 0.603,1.35 1.355,1.35 0.738,0 1.346,-0.603 1.346,-1.35 C 1.346,0.612 0.738,0 0,0 m 0,3.023 c -0.926,0 -1.667,-0.738 -1.667,-1.664 0,-0.926 0.741,-1.672 1.667,-1.672 0.921,0 1.659,0.746 1.659,1.672 C 1.659,2.285 0.921,3.023 0,3.023 M -0.209,1.199 h 0.111 c 0.34,0 0.304,-0.198 0.304,-0.425 0,-0.13 0,-0.259 0.058,-0.376 H 0.693 C 0.653,0.479 0.644,0.84 0.644,0.966 c 0,0.347 -0.286,0.37 -0.38,0.375 v 0.01 c 0.286,0.043 0.389,0.228 0.389,0.474 0,0.33 -0.193,0.508 -0.492,0.508 h -0.81 V 0.398 h 0.44 z m 0,0.813 h 0.196 c 0.138,0 0.228,-0.071 0.228,-0.255 0,-0.125 -0.054,-0.285 -0.228,-0.285 h -0.196 v 0.54"
           style="fill:#f46f1b;fill-opacity:1;fill-rule:nonzero;stroke:none"
           id="path582"
           inkscape:connector-curvature="0" /></g><g
         id="g584"
         transform="translate(618.7662,48.7232)"><path
           d="m 0,0 c -6.808,0 -12.327,-5.519 -12.327,-12.326 0,-6.807 5.519,-12.326 12.327,-12.326 6.807,0 12.326,5.519 12.326,12.326 C 12.326,-5.519 6.807,0 0,0 m -6.628,-5.98 0.003,0.416 c 0.004,1.357 0.568,2.492 1.343,2.698 1.012,0.27 2.376,-0.935 3.744,-3.303 l 1.271,-2.201 c -0.371,-0.065 -0.682,-0.31 -0.924,-0.731 l -4.15,-7.186 c -0.604,-1.047 -1.025,-1.991 -1.261,-2.815 0,0.014 -10e-4,0.026 -10e-4,0.04 -0.042,1.898 -0.081,5.707 -0.025,13.082 m 4.444,-15.259 -0.36,-0.205 c -1.178,-0.675 -2.442,-0.754 -3.008,-0.186 -0.74,0.742 -0.379,2.526 0.988,4.893 l 1.273,2.205 c 0.244,-0.29 0.61,-0.437 1.093,-0.437 H 6.1 c 1.21,0 2.235,0.105 3.068,0.315 C 9.156,-14.661 9.147,-14.668 9.135,-14.675 7.513,-15.66 4.232,-17.6 -2.184,-21.239 M 6.1,-14.072 H 3.555 c 0.13,0.356 0.075,0.748 -0.167,1.165 l -4.149,7.186 c -0.605,1.048 -1.21,1.883 -1.807,2.501 0.012,-0.007 0.023,-0.013 0.036,-0.02 1.661,-0.91 4.977,-2.781 11.336,-6.516 L 9.168,-9.97 c 1.173,-0.682 1.874,-1.739 1.665,-2.512 -0.272,-1.01 -1.997,-1.59 -4.733,-1.59"
           style="fill:#f46f1b;fill-opacity:1;fill-rule:nonzero;stroke:none"
           id="path586"
           inkscape:connector-curvature="0" /></g><g
         id="g588"
         transform="translate(643.4852,36.43)"><path
           d="m 0,0 h -1.254 v 5.934 c 0,1.393 0,1.607 2.66,1.607 2.988,0 4.633,-1.344 4.633,-3.784 C 6.039,0.446 2.987,0 0,0 M 0.402,8.95 H -7.677 -7.862 V 8.146 L -7.7,8.126 C -4.822,7.778 -4.529,7.4 -4.529,5.932 V -9.36 h 3.275 v 7.95 h 1.321 c 3.112,0 9.589,0 9.589,5.167 0,5.193 -6.02,5.193 -9.254,5.193"
           style="fill:#1266ac;fill-opacity:1;fill-rule:nonzero;stroke:none"
           id="path590"
           inkscape:connector-curvature="0" /></g><g
         id="g592"
         transform="translate(671.6707,45.3784)"><path
           d="M 0,0 H -1.925 V -14.273 C -2.434,-13.565 -12.169,0 -12.169,0 h -6.951 v -0.8 l 0.161,-0.022 c 2.813,-0.366 3.172,-0.49 3.172,-2.511 v -14.976 h 2.11 v 15.35 c 0.51,-0.71 11.043,-15.35 11.043,-15.35 H 0.185 V 0 Z"
           style="fill:#1266ac;fill-opacity:1;fill-rule:nonzero;stroke:none"
           id="path594"
           inkscape:connector-curvature="0" /></g><g
         id="g596"
         transform="translate(674.3665,36.8244)"><path
           d="m 0,0 c 0,-4.999 3.05,-10.043 9.865,-10.043 3.236,0 4.832,0.356 6.31,0.753 l 0.138,0.037 v 1.502 l -0.251,-0.068 c -1.573,-0.422 -3.119,-0.655 -4.354,-0.655 -5.445,0 -8.092,2.998 -8.092,9.166 0,4.122 1.96,6.582 5.243,6.582 2.202,0 3.495,-0.864 3.841,-2.569 l 0.03,-0.147 h 3.608 L 16.311,4.765 C 16.188,5.722 15.304,8.844 9.061,8.844 3.049,8.844 0,5.868 0,0"
           style="fill:#1266ac;fill-opacity:1;fill-rule:nonzero;stroke:none"
           id="path598"
           inkscape:connector-curvature="0" /></g><g
         id="g600"
         transform="translate(702.3984,28.486)"><path
           d="m 0,0 c -2.361,0 -2.361,0 -2.361,1.998 v 5.537 h 1.312 c 1.837,0 6.139,0 6.139,-3.94 C 5.09,1.21 3.378,0 0,0 m -2.361,13.664 c 0,1.639 0,1.81 2.046,1.81 2.919,0 4.336,-1.071 4.336,-3.274 0,-2.911 -2.893,-3.248 -5.07,-3.248 H -2.361 Z M 4.267,8.349 c 1.612,0.512 3.131,1.787 3.131,4.063 0,4.479 -5.322,4.479 -7.071,4.479 h -9.278 -0.185 v -0.794 l 0.737,-0.142 C -6.465,15.585 -5.4,15.382 -5.4,13.667 V -1.416 h 5.523 c 2.281,0 8.344,0 8.344,5.011 0,2.494 -1.46,4.118 -4.2,4.754"
           style="fill:#1266ac;fill-opacity:1;fill-rule:nonzero;stroke:none"
           id="path602"
           inkscape:connector-curvature="0" /></g><g
         id="g604"
         transform="translate(716.3966,34.4411)"><path
           d="M 0,0 C 0.197,0.458 2.914,6.768 3.213,7.459 3.508,6.767 6.203,0.457 6.398,0 Z m 4.775,10.936 h -0.12 -5.457 v -0.791 l 0.146,-0.031 C 0.906,9.789 1.558,9.568 1.558,9.045 1.558,8.673 1.334,8.173 1.136,7.732 L 1.114,7.684 C 1.113,7.681 -5.342,-7.376 -5.342,-7.376 h 2.334 c 0,0 2.332,5.737 2.422,5.959 h 7.479 c 0.093,-0.215 2.576,-5.959 2.576,-5.959 h 3.377 z"
           style="fill:#1266ac;fill-opacity:1;fill-rule:nonzero;stroke:none"
           id="path606"
           inkscape:connector-curvature="0" /></g><g
         id="g608"
         transform="translate(750.7474,27.1045)"><path
           d="M 0,0 H 3.038 V 8.577 C 3.578,8.036 11.589,0 11.589,0 l 3.164,0.024 -9.833,9.743 9.762,8.5 H 14.23 13.748 11.407 c 0,0 -7.846,-6.764 -8.369,-7.215 0,0.665 0.004,7.212 0.004,7.212 h -6.031 v -0.753 l 0.301,-0.043 c 2.475,-0.349 2.703,-0.438 2.703,-2.292 z"
           style="fill:#1266ac;fill-opacity:1;fill-rule:evenodd;stroke:none"
           id="path610"
           inkscape:connector-curvature="0" /></g><g
         id="g612"
         transform="translate(746.5398,45.4749)"><path
           d="M 0,0 H -1.924 V -14.3 C -2.433,-13.593 -12.168,0 -12.168,0 h -6.951 v -0.828 l 0.161,-0.021 c 2.812,-0.367 3.171,-0.492 3.171,-2.512 v -15.004 h 2.11 v 15.378 c 0.51,-0.711 11.044,-15.378 11.044,-15.378 H 0.185 V 0 Z"
           style="fill:#1266ac;fill-opacity:1;fill-rule:nonzero;stroke:none"
           id="path614"
           inkscape:connector-curvature="0" /></g></g></g></svg>